<svg xmlns="http://www.w3.org/2000/svg" xmlns:xlink="http://www.w3.org/1999/xlink" width="500" zoomAndPan="magnify" viewBox="0 0 375 374.999991" height="500" preserveAspectRatio="xMidYMid meet" version="1.0"><defs><g/></defs><path fill="#000000" d="M 336.164062 28.902344 C 326.628906 28.902344 318.871094 36.660156 318.871094 46.199219 C 318.867188 55.734375 326.628906 63.492188 336.164062 63.492188 C 345.703125 63.492188 353.460938 55.734375 353.460938 46.199219 C 353.460938 36.660156 345.703125 28.902344 336.164062 28.902344 Z M 336.164062 31.5625 C 344.261719 31.5625 350.800781 38.101562 350.800781 46.199219 C 350.800781 54.296875 344.261719 60.832031 336.164062 60.832031 C 328.066406 60.832031 321.53125 54.296875 321.53125 46.199219 C 321.53125 38.101562 328.066406 31.5625 336.164062 31.5625 Z M 329.511719 36.886719 L 329.511719 55.511719 L 332.171875 55.511719 L 332.171875 50.191406 L 335.496094 50.191406 L 339.425781 55.511719 L 342.734375 55.511719 L 338.476562 49.75 C 341 48.800781 342.816406 46.378906 342.816406 43.539062 C 342.816406 39.878906 339.824219 36.886719 336.164062 36.886719 Z M 332.171875 39.546875 L 336.164062 39.546875 C 338.386719 39.546875 340.15625 41.316406 340.15625 43.539062 C 340.15625 45.757812 338.386719 47.527344 336.164062 47.527344 L 332.171875 47.527344 Z M 332.171875 39.546875 " fill-opacity="1" fill-rule="nonzero"/><g fill="#000000" fill-opacity="1"><g transform="translate(0.0000045, 155.953524)"><g><path d="M 60.84375 0 L 49.25 -40.65625 L 37.671875 0 L 19.3125 0 L -1.3125 -72.4375 L 17.03125 -72.4375 L 29.40625 -22.734375 L 29.84375 -22.734375 L 43.015625 -72.4375 L 55.484375 -72.4375 L 68.65625 -22.734375 L 69.09375 -22.734375 L 81.46875 -72.4375 L 99.734375 -72.4375 L 79.109375 0 Z M 60.84375 0 "/></g></g></g><g fill="#000000" fill-opacity="1"><g transform="translate(92.529069, 155.953524)"><g><path d="M 5.265625 0 L 5.265625 -75.5 L 20.8125 -75.5 L 20.8125 -40.296875 L 20.984375 -40.296875 C 25.023438 -44.335938 29.328125 -46.359375 33.890625 -46.359375 C 36.109375 -46.359375 38.316406 -46.0625 40.515625 -45.46875 C 42.710938 -44.882812 44.820312 -43.976562 46.84375 -42.75 C 48.863281 -41.519531 50.5 -39.78125 51.75 -37.53125 C 53.007812 -35.28125 53.640625 -32.660156 53.640625 -29.671875 L 53.640625 0 L 38.109375 0 L 38.109375 -25.46875 C 38.109375 -27.800781 37.359375 -29.84375 35.859375 -31.59375 C 34.367188 -33.351562 32.425781 -34.234375 30.03125 -34.234375 C 27.6875 -34.234375 25.5625 -33.328125 23.65625 -31.515625 C 21.757812 -29.703125 20.8125 -27.6875 20.8125 -25.46875 L 20.8125 0 Z M 5.265625 0 "/></g></g></g><g fill="#000000" fill-opacity="1"><g transform="translate(144.675319, 155.953524)"><g><path d="M 6.75 -70.140625 C 8.570312 -71.960938 10.738281 -72.875 13.25 -72.875 C 15.769531 -72.875 17.9375 -71.960938 19.75 -70.140625 C 21.5625 -68.328125 22.46875 -66.160156 22.46875 -63.640625 C 22.46875 -61.128906 21.5625 -58.96875 19.75 -57.15625 C 17.9375 -55.34375 15.769531 -54.4375 13.25 -54.4375 C 10.738281 -54.4375 8.570312 -55.34375 6.75 -57.15625 C 4.9375 -58.96875 4.03125 -61.128906 4.03125 -63.640625 C 4.03125 -66.160156 4.9375 -68.328125 6.75 -70.140625 Z M 5.265625 -45.046875 L 5.265625 0 L 20.8125 0 L 20.8125 -45.046875 Z M 5.265625 -45.046875 "/></g></g></g><g fill="#000000" fill-opacity="1"><g transform="translate(165.305411, 155.953524)"><g><path d="M 24.84375 -46.359375 C 27.414062 -46.359375 29.960938 -46.0625 32.484375 -45.46875 C 35.003906 -44.882812 36.878906 -44.300781 38.109375 -43.71875 L 39.953125 -42.84375 L 34.859375 -32.65625 C 31.347656 -34.53125 28.007812 -35.46875 24.84375 -35.46875 C 23.09375 -35.46875 21.847656 -35.273438 21.109375 -34.890625 C 20.378906 -34.515625 20.015625 -33.800781 20.015625 -32.75 C 20.015625 -32.507812 20.039062 -32.269531 20.09375 -32.03125 C 20.15625 -31.800781 20.273438 -31.582031 20.453125 -31.375 C 20.628906 -31.175781 20.789062 -31.003906 20.9375 -30.859375 C 21.082031 -30.710938 21.332031 -30.550781 21.6875 -30.375 C 22.039062 -30.195312 22.316406 -30.0625 22.515625 -29.96875 C 22.722656 -29.882812 23.0625 -29.753906 23.53125 -29.578125 C 24 -29.410156 24.347656 -29.28125 24.578125 -29.1875 C 24.816406 -29.101562 25.210938 -28.972656 25.765625 -28.796875 C 26.328125 -28.617188 26.753906 -28.503906 27.046875 -28.453125 C 28.859375 -27.921875 30.4375 -27.332031 31.78125 -26.6875 C 33.125 -26.039062 34.539062 -25.160156 36.03125 -24.046875 C 37.53125 -22.941406 38.6875 -21.539062 39.5 -19.84375 C 40.320312 -18.144531 40.734375 -16.210938 40.734375 -14.046875 C 40.734375 -3.804688 33.625 1.3125 19.40625 1.3125 C 16.1875 1.3125 13.125 0.816406 10.21875 -0.171875 C 7.320312 -1.171875 5.234375 -2.164062 3.953125 -3.15625 L 2.015625 -4.734375 L 8.34375 -15.359375 C 8.8125 -14.953125 9.425781 -14.46875 10.1875 -13.90625 C 10.945312 -13.351562 12.320312 -12.59375 14.3125 -11.625 C 16.300781 -10.664062 18.023438 -10.1875 19.484375 -10.1875 C 22.703125 -10.1875 24.3125 -11.269531 24.3125 -13.4375 C 24.3125 -14.425781 23.898438 -15.195312 23.078125 -15.75 C 22.265625 -16.3125 20.878906 -16.941406 18.921875 -17.640625 C 16.960938 -18.347656 15.425781 -18.992188 14.3125 -19.578125 C 11.5 -21.046875 9.273438 -22.703125 7.640625 -24.546875 C 6.003906 -26.390625 5.1875 -28.832031 5.1875 -31.875 C 5.1875 -36.4375 6.953125 -39.988281 10.484375 -42.53125 C 14.023438 -45.082031 18.8125 -46.359375 24.84375 -46.359375 Z M 24.84375 -46.359375 "/></g></g></g><g fill="#000000" fill-opacity="1"><g transform="translate(202.615364, 155.953524)"><g><path d="M 56.71875 -45.046875 L 35.296875 -23.53125 L 58.828125 0 L 38.8125 0 L 20.8125 -18 L 20.8125 0 L 5.265625 0 L 5.265625 -75.5 L 20.8125 -75.5 L 20.8125 -29.328125 L 36.53125 -45.046875 Z M 56.71875 -45.046875 "/></g></g></g><g fill="#000000" fill-opacity="1"><g transform="translate(253.444796, 155.953524)"><g/></g></g><g fill="#000000" fill-opacity="1"><g transform="translate(271.529023, 155.953524)"><g><path d="M 2.546875 -19.046875 C 2.546875 -21.210938 3.039062 -23.289062 4.03125 -25.28125 C 5.03125 -27.269531 6.4375 -29.082031 8.25 -30.71875 C 10.0625 -32.363281 11.90625 -33.800781 13.78125 -35.03125 C 15.65625 -36.257812 17.789062 -37.519531 20.1875 -38.8125 C 15.332031 -44.894531 12.90625 -50.25 12.90625 -54.875 C 12.90625 -60.613281 14.910156 -65.191406 18.921875 -68.609375 C 22.929688 -72.035156 28.625 -73.75 36 -73.75 C 42.789062 -73.75 48.070312 -71.84375 51.84375 -68.03125 C 55.613281 -64.226562 57.5 -59.84375 57.5 -54.875 C 57.5 -52.820312 57 -50.816406 56 -48.859375 C 55.007812 -46.898438 53.828125 -45.234375 52.453125 -43.859375 C 51.078125 -42.484375 49.6875 -41.265625 48.28125 -40.203125 C 46.882812 -39.148438 45.6875 -38.363281 44.6875 -37.84375 L 43.203125 -37.046875 L 52.859375 -27.046875 C 54.960938 -27.984375 58.503906 -31.023438 63.484375 -36.171875 L 73.65625 -26.15625 C 70.382812 -22.414062 66.960938 -19.113281 63.390625 -16.25 L 79.015625 0 L 58.203125 0 L 51.015625 -7.46875 C 48.785156 -5.882812 47.144531 -4.753906 46.09375 -4.078125 C 45.039062 -3.410156 43.472656 -2.546875 41.390625 -1.484375 C 39.316406 -0.429688 37.179688 0.296875 34.984375 0.703125 C 32.785156 1.109375 30.375 1.3125 27.75 1.3125 C 25.457031 1.3125 23.195312 1.117188 20.96875 0.734375 C 18.75 0.359375 16.515625 -0.304688 14.265625 -1.265625 C 12.015625 -2.234375 10.039062 -3.445312 8.34375 -4.90625 C 6.644531 -6.375 5.253906 -8.320312 4.171875 -10.75 C 3.085938 -13.1875 2.546875 -15.953125 2.546875 -19.046875 Z M 36 -62.078125 C 33.894531 -62.078125 32.3125 -61.398438 31.25 -60.046875 C 30.195312 -58.703125 29.671875 -56.976562 29.671875 -54.875 C 29.671875 -53.644531 30.109375 -52.28125 30.984375 -50.78125 C 31.867188 -49.289062 32.75 -48.109375 33.625 -47.234375 L 34.9375 -46 C 40.320312 -48.925781 43.015625 -51.882812 43.015625 -54.875 C 43.015625 -59.675781 40.675781 -62.078125 36 -62.078125 Z M 40.296875 -18.4375 L 28.796875 -29.765625 C 28.617188 -29.703125 28.351562 -29.597656 28 -29.453125 C 27.65625 -29.304688 27.039062 -28.953125 26.15625 -28.390625 C 25.28125 -27.835938 24.519531 -27.222656 23.875 -26.546875 C 23.238281 -25.878906 22.640625 -24.988281 22.078125 -23.875 C 21.523438 -22.769531 21.25 -21.601562 21.25 -20.375 C 21.25 -18.4375 22.066406 -16.941406 23.703125 -15.890625 C 25.335938 -14.835938 27.238281 -14.3125 29.40625 -14.3125 C 31.164062 -14.3125 32.953125 -14.644531 34.765625 -15.3125 C 36.578125 -15.988281 37.953125 -16.679688 38.890625 -17.390625 Z M 40.296875 -18.4375 "/></g></g></g><g fill="#000000" fill-opacity="1"><g transform="translate(0.0000045, 252.597891)"><g><path d="M 47.140625 -72.4375 L 47.140625 -57.953125 L 21.78125 -57.953125 L 21.78125 -43.546875 L 45.21875 -43.546875 L 45.21875 -29.0625 L 21.78125 -29.0625 L 21.78125 0 L 5.265625 0 L 5.265625 -72.4375 Z M 47.140625 -72.4375 "/></g></g></g><g fill="#000000" fill-opacity="1"><g transform="translate(43.894114, 252.597891)"><g><path d="M 5.265625 0 L 5.265625 -75.5 L 20.8125 -75.5 L 20.8125 0 Z M 5.265625 0 "/></g></g></g><g fill="#000000" fill-opacity="1"><g transform="translate(64.085269, 252.597891)"><g><path d="M 9.515625 -5.359375 C 4.515625 -9.804688 2.015625 -15.507812 2.015625 -22.46875 C 2.015625 -29.4375 4.617188 -35.160156 9.828125 -39.640625 C 15.035156 -44.117188 21.476562 -46.359375 29.15625 -46.359375 C 36.695312 -46.359375 43.054688 -44.101562 48.234375 -39.59375 C 53.421875 -35.09375 56.015625 -29.382812 56.015625 -22.46875 C 56.015625 -15.5625 53.484375 -9.867188 48.421875 -5.390625 C 43.359375 -0.921875 36.9375 1.3125 29.15625 1.3125 C 21.070312 1.3125 14.523438 -0.910156 9.515625 -5.359375 Z M 21.546875 -30.109375 C 19.535156 -28.117188 18.53125 -25.570312 18.53125 -22.46875 C 18.53125 -19.375 19.492188 -16.84375 21.421875 -14.875 C 23.347656 -12.914062 25.894531 -11.9375 29.0625 -11.9375 C 32.101562 -11.9375 34.601562 -12.929688 36.5625 -14.921875 C 38.53125 -16.910156 39.515625 -19.425781 39.515625 -22.46875 C 39.515625 -25.570312 38.503906 -28.117188 36.484375 -30.109375 C 34.460938 -32.097656 31.988281 -33.09375 29.0625 -33.09375 C 26.070312 -33.09375 23.566406 -32.097656 21.546875 -30.109375 Z M 21.546875 -30.109375 "/></g></g></g><g fill="#000000" fill-opacity="1"><g transform="translate(116.231519, 252.597891)"><g><path d="M 19.9375 -45.046875 L 19.9375 -23.625 C 19.9375 -19.164062 20.609375 -16 21.953125 -14.125 C 23.296875 -12.257812 25.578125 -11.328125 28.796875 -11.328125 C 32.015625 -11.328125 34.296875 -12.257812 35.640625 -14.125 C 36.992188 -16 37.671875 -19.164062 37.671875 -23.625 L 37.671875 -45.046875 L 53.203125 -45.046875 L 53.203125 -19.84375 C 53.203125 -12.351562 51.253906 -6.953125 47.359375 -3.640625 C 43.472656 -0.335938 37.285156 1.3125 28.796875 1.3125 C 20.304688 1.3125 14.113281 -0.335938 10.21875 -3.640625 C 6.332031 -6.953125 4.390625 -12.351562 4.390625 -19.84375 L 4.390625 -45.046875 Z M 19.9375 -45.046875 "/></g></g></g><g fill="#000000" fill-opacity="1"><g transform="translate(167.938821, 252.597891)"><g><path d="M 5.265625 0 L 5.265625 -45.046875 L 20.8125 -45.046875 L 20.8125 -38.546875 L 20.984375 -38.546875 C 21.097656 -38.773438 21.285156 -39.066406 21.546875 -39.421875 C 21.816406 -39.773438 22.390625 -40.390625 23.265625 -41.265625 C 24.140625 -42.140625 25.070312 -42.925781 26.0625 -43.625 C 27.0625 -44.332031 28.351562 -44.960938 29.9375 -45.515625 C 31.519531 -46.078125 33.128906 -46.359375 34.765625 -46.359375 C 36.460938 -46.359375 38.128906 -46.125 39.765625 -45.65625 C 41.410156 -45.1875 42.613281 -44.71875 43.375 -44.25 L 44.59375 -43.546875 L 38.109375 -30.375 C 36.171875 -32.019531 33.476562 -32.84375 30.03125 -32.84375 C 28.15625 -32.84375 26.539062 -32.429688 25.1875 -31.609375 C 23.84375 -30.785156 22.894531 -29.785156 22.34375 -28.609375 C 21.789062 -27.441406 21.394531 -26.445312 21.15625 -25.625 C 20.925781 -24.8125 20.8125 -24.171875 20.8125 -23.703125 L 20.8125 0 Z M 5.265625 0 "/></g></g></g><g fill="#000000" fill-opacity="1"><g transform="translate(205.775508, 252.597891)"><g><path d="M 6.75 -70.140625 C 8.570312 -71.960938 10.738281 -72.875 13.25 -72.875 C 15.769531 -72.875 17.9375 -71.960938 19.75 -70.140625 C 21.5625 -68.328125 22.46875 -66.160156 22.46875 -63.640625 C 22.46875 -61.128906 21.5625 -58.96875 19.75 -57.15625 C 17.9375 -55.34375 15.769531 -54.4375 13.25 -54.4375 C 10.738281 -54.4375 8.570312 -55.34375 6.75 -57.15625 C 4.9375 -58.96875 4.03125 -61.128906 4.03125 -63.640625 C 4.03125 -66.160156 4.9375 -68.328125 6.75 -70.140625 Z M 5.265625 -45.046875 L 5.265625 0 L 20.8125 0 L 20.8125 -45.046875 Z M 5.265625 -45.046875 "/></g></g></g><g fill="#000000" fill-opacity="1"><g transform="translate(226.405613, 252.597891)"><g><path d="M 24.84375 -46.359375 C 27.414062 -46.359375 29.960938 -46.0625 32.484375 -45.46875 C 35.003906 -44.882812 36.878906 -44.300781 38.109375 -43.71875 L 39.953125 -42.84375 L 34.859375 -32.65625 C 31.347656 -34.53125 28.007812 -35.46875 24.84375 -35.46875 C 23.09375 -35.46875 21.847656 -35.273438 21.109375 -34.890625 C 20.378906 -34.515625 20.015625 -33.800781 20.015625 -32.75 C 20.015625 -32.507812 20.039062 -32.269531 20.09375 -32.03125 C 20.15625 -31.800781 20.273438 -31.582031 20.453125 -31.375 C 20.628906 -31.175781 20.789062 -31.003906 20.9375 -30.859375 C 21.082031 -30.710938 21.332031 -30.550781 21.6875 -30.375 C 22.039062 -30.195312 22.316406 -30.0625 22.515625 -29.96875 C 22.722656 -29.882812 23.0625 -29.753906 23.53125 -29.578125 C 24 -29.410156 24.347656 -29.28125 24.578125 -29.1875 C 24.816406 -29.101562 25.210938 -28.972656 25.765625 -28.796875 C 26.328125 -28.617188 26.753906 -28.503906 27.046875 -28.453125 C 28.859375 -27.921875 30.4375 -27.332031 31.78125 -26.6875 C 33.125 -26.039062 34.539062 -25.160156 36.03125 -24.046875 C 37.53125 -22.941406 38.6875 -21.539062 39.5 -19.84375 C 40.320312 -18.144531 40.734375 -16.210938 40.734375 -14.046875 C 40.734375 -3.804688 33.625 1.3125 19.40625 1.3125 C 16.1875 1.3125 13.125 0.816406 10.21875 -0.171875 C 7.320312 -1.171875 5.234375 -2.164062 3.953125 -3.15625 L 2.015625 -4.734375 L 8.34375 -15.359375 C 8.8125 -14.953125 9.425781 -14.46875 10.1875 -13.90625 C 10.945312 -13.351562 12.320312 -12.59375 14.3125 -11.625 C 16.300781 -10.664062 18.023438 -10.1875 19.484375 -10.1875 C 22.703125 -10.1875 24.3125 -11.269531 24.3125 -13.4375 C 24.3125 -14.425781 23.898438 -15.195312 23.078125 -15.75 C 22.265625 -16.3125 20.878906 -16.941406 18.921875 -17.640625 C 16.960938 -18.347656 15.425781 -18.992188 14.3125 -19.578125 C 11.5 -21.046875 9.273438 -22.703125 7.640625 -24.546875 C 6.003906 -26.390625 5.1875 -28.832031 5.1875 -31.875 C 5.1875 -36.4375 6.953125 -39.988281 10.484375 -42.53125 C 14.023438 -45.082031 18.8125 -46.359375 24.84375 -46.359375 Z M 24.84375 -46.359375 "/></g></g></g><g fill="#000000" fill-opacity="1"><g transform="translate(263.715565, 252.597891)"><g><path d="M 5.265625 0 L 5.265625 -75.5 L 20.8125 -75.5 L 20.8125 -40.296875 L 20.984375 -40.296875 C 25.023438 -44.335938 29.328125 -46.359375 33.890625 -46.359375 C 36.109375 -46.359375 38.316406 -46.0625 40.515625 -45.46875 C 42.710938 -44.882812 44.820312 -43.976562 46.84375 -42.75 C 48.863281 -41.519531 50.5 -39.78125 51.75 -37.53125 C 53.007812 -35.28125 53.640625 -32.660156 53.640625 -29.671875 L 53.640625 0 L 38.109375 0 L 38.109375 -25.46875 C 38.109375 -27.800781 37.359375 -29.84375 35.859375 -31.59375 C 34.367188 -33.351562 32.425781 -34.234375 30.03125 -34.234375 C 27.6875 -34.234375 25.5625 -33.328125 23.65625 -31.515625 C 21.757812 -29.703125 20.8125 -27.6875 20.8125 -25.46875 L 20.8125 0 Z M 5.265625 0 "/></g></g></g><g fill="#000000" fill-opacity="1"><g transform="translate(5.229775, 278.102091)"><g><path d="M 5.59375 -10.375 C 6.519531 -10.375 7.3125 -10.140625 7.96875 -9.671875 C 8.632812 -9.210938 9.132812 -8.585938 9.46875 -7.796875 C 9.8125 -7.015625 9.984375 -6.144531 9.984375 -5.1875 C 9.984375 -4.21875 9.8125 -3.335938 9.46875 -2.546875 C 9.132812 -1.765625 8.632812 -1.144531 7.96875 -0.6875 C 7.3125 -0.226562 6.519531 0 5.59375 0 L 1.9375 0 C 1.738281 0 1.570312 -0.0664062 1.4375 -0.203125 C 1.300781 -0.347656 1.234375 -0.519531 1.234375 -0.71875 L 1.234375 -9.671875 C 1.234375 -9.867188 1.300781 -10.035156 1.4375 -10.171875 C 1.570312 -10.304688 1.738281 -10.375 1.9375 -10.375 Z M 5.4375 -1.359375 C 6.445312 -1.359375 7.203125 -1.71875 7.703125 -2.4375 C 8.210938 -3.15625 8.46875 -4.070312 8.46875 -5.1875 C 8.46875 -6.289062 8.210938 -7.203125 7.703125 -7.921875 C 7.191406 -8.648438 6.4375 -9.015625 5.4375 -9.015625 L 2.703125 -9.015625 L 2.703125 -1.359375 Z M 5.4375 -1.359375 "/></g></g></g><g fill="#000000" fill-opacity="1"><g transform="translate(27.722476, 278.102091)"><g><path d="M 6.828125 -7.765625 C 7.035156 -7.765625 7.207031 -7.695312 7.34375 -7.5625 C 7.476562 -7.425781 7.546875 -7.257812 7.546875 -7.0625 L 7.546875 -3.109375 C 7.546875 -2.085938 7.257812 -1.289062 6.6875 -0.71875 C 6.125 -0.144531 5.320312 0.140625 4.28125 0.140625 C 3.257812 0.140625 2.460938 -0.144531 1.890625 -0.71875 C 1.328125 -1.289062 1.046875 -2.085938 1.046875 -3.109375 L 1.046875 -7.0625 C 1.046875 -7.257812 1.113281 -7.425781 1.25 -7.5625 C 1.382812 -7.695312 1.550781 -7.765625 1.75 -7.765625 C 1.957031 -7.765625 2.128906 -7.695312 2.265625 -7.5625 C 2.398438 -7.425781 2.46875 -7.257812 2.46875 -7.0625 L 2.46875 -3.109375 C 2.46875 -1.816406 3.070312 -1.171875 4.28125 -1.171875 C 4.882812 -1.171875 5.34375 -1.332031 5.65625 -1.65625 C 5.976562 -1.988281 6.140625 -2.472656 6.140625 -3.109375 L 6.140625 -7.0625 C 6.140625 -7.257812 6.207031 -7.425781 6.34375 -7.5625 C 6.476562 -7.695312 6.640625 -7.765625 6.828125 -7.765625 Z M 4.28125 2.234375 C 4.007812 2.234375 3.8125 2.179688 3.6875 2.078125 C 3.5625 1.972656 3.5 1.800781 3.5 1.5625 L 3.5 1.34375 C 3.5 0.90625 3.757812 0.6875 4.28125 0.6875 C 4.582031 0.6875 4.796875 0.734375 4.921875 0.828125 C 5.046875 0.929688 5.109375 1.101562 5.109375 1.34375 L 5.109375 1.5625 C 5.109375 1.800781 5.039062 1.972656 4.90625 2.078125 C 4.78125 2.179688 4.570312 2.234375 4.28125 2.234375 Z M 4.28125 2.234375 "/></g></g></g><g fill="#000000" fill-opacity="1"><g transform="translate(48.184253, 278.102091)"><g><path d="M 5.015625 -7.953125 C 6.796875 -7.953125 7.6875 -6.882812 7.6875 -4.75 L 7.6875 -0.71875 C 7.6875 -0.519531 7.617188 -0.347656 7.484375 -0.203125 C 7.347656 -0.0664062 7.175781 0 6.96875 0 C 6.769531 0 6.601562 -0.0664062 6.46875 -0.203125 C 6.332031 -0.347656 6.265625 -0.519531 6.265625 -0.71875 L 6.265625 -4.734375 C 6.265625 -5.316406 6.128906 -5.78125 5.859375 -6.125 C 5.597656 -6.46875 5.164062 -6.640625 4.5625 -6.640625 C 4.164062 -6.640625 3.804688 -6.550781 3.484375 -6.375 C 3.171875 -6.207031 2.921875 -5.976562 2.734375 -5.6875 C 2.554688 -5.394531 2.46875 -5.078125 2.46875 -4.734375 L 2.46875 -0.71875 C 2.46875 -0.519531 2.398438 -0.347656 2.265625 -0.203125 C 2.128906 -0.0664062 1.957031 0 1.75 0 C 1.539062 0 1.367188 -0.0664062 1.234375 -0.203125 C 1.109375 -0.335938 1.046875 -0.507812 1.046875 -0.71875 L 1.046875 -7.0625 C 1.046875 -7.257812 1.113281 -7.425781 1.25 -7.5625 C 1.382812 -7.695312 1.550781 -7.765625 1.75 -7.765625 C 1.957031 -7.765625 2.128906 -7.695312 2.265625 -7.5625 C 2.398438 -7.425781 2.46875 -7.257812 2.46875 -7.0625 L 2.46875 -6.546875 C 2.71875 -6.929688 3.070312 -7.257812 3.53125 -7.53125 C 3.988281 -7.8125 4.484375 -7.953125 5.015625 -7.953125 Z M 5.015625 -7.953125 "/></g></g></g><g fill="#000000" fill-opacity="1"><g transform="translate(68.779454, 278.102091)"><g><path d="M 7.546875 -7.875 C 7.753906 -7.875 7.925781 -7.804688 8.0625 -7.671875 C 8.195312 -7.535156 8.265625 -7.359375 8.265625 -7.140625 L 8.265625 -0.625 C 8.265625 0.175781 8.09375 0.84375 7.75 1.375 C 7.40625 1.914062 6.941406 2.316406 6.359375 2.578125 C 5.773438 2.835938 5.117188 2.96875 4.390625 2.96875 C 3.992188 2.96875 3.53125 2.894531 3 2.75 C 2.46875 2.613281 2.128906 2.472656 1.984375 2.328125 C 1.679688 2.171875 1.53125 1.972656 1.53125 1.734375 C 1.53125 1.671875 1.550781 1.59375 1.59375 1.5 C 1.695312 1.25 1.878906 1.125 2.140625 1.125 C 2.265625 1.125 2.398438 1.15625 2.546875 1.21875 C 3.335938 1.519531 3.957031 1.671875 4.40625 1.671875 C 5.195312 1.671875 5.800781 1.476562 6.21875 1.09375 C 6.632812 0.71875 6.84375 0.203125 6.84375 -0.453125 L 6.84375 -1.265625 C 6.644531 -0.878906 6.300781 -0.546875 5.8125 -0.265625 C 5.320312 0.00390625 4.800781 0.140625 4.25 0.140625 C 3.570312 0.140625 2.953125 -0.03125 2.390625 -0.375 C 1.828125 -0.71875 1.382812 -1.195312 1.0625 -1.8125 C 0.738281 -2.4375 0.578125 -3.132812 0.578125 -3.90625 C 0.578125 -4.675781 0.738281 -5.367188 1.0625 -5.984375 C 1.382812 -6.597656 1.820312 -7.078125 2.375 -7.421875 C 2.9375 -7.773438 3.550781 -7.953125 4.21875 -7.953125 C 4.769531 -7.953125 5.28125 -7.828125 5.75 -7.578125 C 6.21875 -7.328125 6.582031 -7.023438 6.84375 -6.671875 L 6.84375 -7.140625 C 6.84375 -7.347656 6.90625 -7.519531 7.03125 -7.65625 C 7.164062 -7.800781 7.335938 -7.875 7.546875 -7.875 Z M 4.421875 -1.15625 C 4.898438 -1.15625 5.328125 -1.269531 5.703125 -1.5 C 6.078125 -1.738281 6.367188 -2.066406 6.578125 -2.484375 C 6.796875 -2.898438 6.90625 -3.375 6.90625 -3.90625 C 6.90625 -4.425781 6.796875 -4.894531 6.578125 -5.3125 C 6.367188 -5.726562 6.078125 -6.050781 5.703125 -6.28125 C 5.328125 -6.519531 4.898438 -6.640625 4.421875 -6.640625 C 3.941406 -6.640625 3.515625 -6.519531 3.140625 -6.28125 C 2.765625 -6.050781 2.46875 -5.722656 2.25 -5.296875 C 2.039062 -4.878906 1.9375 -4.414062 1.9375 -3.90625 C 1.9375 -3.382812 2.039062 -2.914062 2.25 -2.5 C 2.46875 -2.082031 2.765625 -1.753906 3.140625 -1.515625 C 3.515625 -1.273438 3.941406 -1.15625 4.421875 -1.15625 Z M 4.421875 -1.15625 "/></g></g></g><g fill="#000000" fill-opacity="1"><g transform="translate(89.93797, 278.102091)"><g/></g></g><g fill="#000000" fill-opacity="1"><g transform="translate(105.908022, 278.102091)"><g><path d="M 4.4375 -7.953125 C 5.21875 -7.953125 5.863281 -7.828125 6.375 -7.578125 C 6.894531 -7.328125 7.15625 -7.007812 7.15625 -6.625 C 7.15625 -6.457031 7.097656 -6.304688 6.984375 -6.171875 C 6.878906 -6.035156 6.742188 -5.96875 6.578125 -5.96875 C 6.453125 -5.96875 6.351562 -5.988281 6.28125 -6.03125 C 6.207031 -6.070312 6.101562 -6.140625 5.96875 -6.234375 C 5.914062 -6.285156 5.820312 -6.351562 5.6875 -6.4375 C 5.570312 -6.5 5.40625 -6.546875 5.1875 -6.578125 C 4.96875 -6.617188 4.769531 -6.640625 4.59375 -6.640625 C 4.082031 -6.640625 3.628906 -6.519531 3.234375 -6.28125 C 2.835938 -6.050781 2.53125 -5.722656 2.3125 -5.296875 C 2.09375 -4.878906 1.984375 -4.414062 1.984375 -3.90625 C 1.984375 -3.375 2.085938 -2.898438 2.296875 -2.484375 C 2.515625 -2.078125 2.816406 -1.753906 3.203125 -1.515625 C 3.585938 -1.273438 4.023438 -1.15625 4.515625 -1.15625 C 5.035156 -1.15625 5.453125 -1.234375 5.765625 -1.390625 C 5.835938 -1.429688 5.929688 -1.5 6.046875 -1.59375 C 6.148438 -1.664062 6.238281 -1.722656 6.3125 -1.765625 C 6.382812 -1.804688 6.472656 -1.828125 6.578125 -1.828125 C 6.773438 -1.828125 6.929688 -1.765625 7.046875 -1.640625 C 7.160156 -1.515625 7.21875 -1.351562 7.21875 -1.15625 C 7.21875 -0.945312 7.085938 -0.738281 6.828125 -0.53125 C 6.566406 -0.332031 6.210938 -0.171875 5.765625 -0.046875 C 5.328125 0.078125 4.859375 0.140625 4.359375 0.140625 C 3.609375 0.140625 2.945312 -0.03125 2.375 -0.375 C 1.800781 -0.726562 1.359375 -1.210938 1.046875 -1.828125 C 0.734375 -2.453125 0.578125 -3.144531 0.578125 -3.90625 C 0.578125 -4.664062 0.738281 -5.351562 1.0625 -5.96875 C 1.394531 -6.582031 1.851562 -7.066406 2.4375 -7.421875 C 3.019531 -7.773438 3.6875 -7.953125 4.4375 -7.953125 Z M 4.4375 -7.953125 "/></g></g></g><g fill="#000000" fill-opacity="1"><g transform="translate(125.391404, 278.102091)"><g><path d="M 6.828125 -7.765625 C 7.035156 -7.765625 7.207031 -7.695312 7.34375 -7.5625 C 7.476562 -7.425781 7.546875 -7.257812 7.546875 -7.0625 L 7.546875 -3.109375 C 7.546875 -2.085938 7.257812 -1.289062 6.6875 -0.71875 C 6.125 -0.144531 5.320312 0.140625 4.28125 0.140625 C 3.257812 0.140625 2.460938 -0.144531 1.890625 -0.71875 C 1.328125 -1.289062 1.046875 -2.085938 1.046875 -3.109375 L 1.046875 -7.0625 C 1.046875 -7.257812 1.113281 -7.425781 1.25 -7.5625 C 1.382812 -7.695312 1.550781 -7.765625 1.75 -7.765625 C 1.957031 -7.765625 2.128906 -7.695312 2.265625 -7.5625 C 2.398438 -7.425781 2.46875 -7.257812 2.46875 -7.0625 L 2.46875 -3.109375 C 2.46875 -1.816406 3.070312 -1.171875 4.28125 -1.171875 C 4.882812 -1.171875 5.34375 -1.332031 5.65625 -1.65625 C 5.976562 -1.988281 6.140625 -2.472656 6.140625 -3.109375 L 6.140625 -7.0625 C 6.140625 -7.257812 6.207031 -7.425781 6.34375 -7.5625 C 6.476562 -7.695312 6.640625 -7.765625 6.828125 -7.765625 Z M 4.28125 2.234375 C 4.007812 2.234375 3.8125 2.179688 3.6875 2.078125 C 3.5625 1.972656 3.5 1.800781 3.5 1.5625 L 3.5 1.34375 C 3.5 0.90625 3.757812 0.6875 4.28125 0.6875 C 4.582031 0.6875 4.796875 0.734375 4.921875 0.828125 C 5.046875 0.929688 5.109375 1.101562 5.109375 1.34375 L 5.109375 1.5625 C 5.109375 1.800781 5.039062 1.972656 4.90625 2.078125 C 4.78125 2.179688 4.570312 2.234375 4.28125 2.234375 Z M 4.28125 2.234375 "/></g></g></g><g fill="#000000" fill-opacity="1"><g transform="translate(145.853175, 278.102091)"><g/></g></g><g fill="#000000" fill-opacity="1"><g transform="translate(161.823221, 278.102091)"><g><path d="M 2.578125 -0.71875 C 2.578125 -0.519531 2.507812 -0.347656 2.375 -0.203125 C 2.238281 -0.0664062 2.070312 0 1.875 0 C 1.675781 0 1.507812 -0.0664062 1.375 -0.203125 C 1.238281 -0.347656 1.171875 -0.519531 1.171875 -0.71875 L 1.171875 -10.265625 C 1.171875 -10.460938 1.238281 -10.628906 1.375 -10.765625 C 1.519531 -10.898438 1.691406 -10.96875 1.890625 -10.96875 C 2.085938 -10.96875 2.25 -10.898438 2.375 -10.765625 C 2.507812 -10.628906 2.578125 -10.460938 2.578125 -10.265625 Z M 2.578125 -0.71875 "/></g></g></g><g fill="#000000" fill-opacity="1"><g transform="translate(177.437482, 278.102091)"><g><path d="M 7.359375 -7.875 C 7.566406 -7.875 7.734375 -7.804688 7.859375 -7.671875 C 7.992188 -7.535156 8.0625 -7.359375 8.0625 -7.140625 L 8.0625 -0.71875 C 8.0625 -0.519531 7.992188 -0.347656 7.859375 -0.203125 C 7.734375 -0.0664062 7.566406 0 7.359375 0 C 7.148438 0 6.976562 -0.0664062 6.84375 -0.203125 C 6.71875 -0.335938 6.65625 -0.507812 6.65625 -0.71875 L 6.65625 -1.09375 C 6.394531 -0.75 6.039062 -0.457031 5.59375 -0.21875 C 5.15625 0.0195312 4.679688 0.140625 4.171875 0.140625 C 3.492188 0.140625 2.878906 -0.03125 2.328125 -0.375 C 1.785156 -0.71875 1.359375 -1.195312 1.046875 -1.8125 C 0.734375 -2.4375 0.578125 -3.132812 0.578125 -3.90625 C 0.578125 -4.675781 0.734375 -5.367188 1.046875 -5.984375 C 1.359375 -6.597656 1.785156 -7.078125 2.328125 -7.421875 C 2.867188 -7.773438 3.46875 -7.953125 4.125 -7.953125 C 4.644531 -7.953125 5.128906 -7.84375 5.578125 -7.625 C 6.023438 -7.40625 6.382812 -7.128906 6.65625 -6.796875 L 6.65625 -7.140625 C 6.65625 -7.347656 6.71875 -7.519531 6.84375 -7.65625 C 6.976562 -7.800781 7.148438 -7.875 7.359375 -7.875 Z M 4.328125 -1.15625 C 4.796875 -1.15625 5.207031 -1.273438 5.5625 -1.515625 C 5.925781 -1.753906 6.207031 -2.078125 6.40625 -2.484375 C 6.613281 -2.898438 6.71875 -3.375 6.71875 -3.90625 C 6.71875 -4.414062 6.613281 -4.878906 6.40625 -5.296875 C 6.207031 -5.710938 5.925781 -6.039062 5.5625 -6.28125 C 5.207031 -6.519531 4.796875 -6.640625 4.328125 -6.640625 C 3.867188 -6.640625 3.457031 -6.519531 3.09375 -6.28125 C 2.726562 -6.050781 2.441406 -5.726562 2.234375 -5.3125 C 2.035156 -4.894531 1.9375 -4.425781 1.9375 -3.90625 C 1.9375 -3.375 2.035156 -2.898438 2.234375 -2.484375 C 2.441406 -2.078125 2.726562 -1.753906 3.09375 -1.515625 C 3.457031 -1.273438 3.867188 -1.15625 4.328125 -1.15625 Z M 4.453125 -8.375 C 4.378906 -8.375 4.257812 -8.414062 4.09375 -8.5 L 2.75 -9.421875 C 2.476562 -9.566406 2.34375 -9.769531 2.34375 -10.03125 C 2.34375 -10.207031 2.410156 -10.347656 2.546875 -10.453125 C 2.679688 -10.566406 2.828125 -10.625 2.984375 -10.625 C 3.203125 -10.625 3.410156 -10.523438 3.609375 -10.328125 L 4.765625 -9.140625 C 4.867188 -9.023438 4.921875 -8.910156 4.921875 -8.796875 C 4.921875 -8.660156 4.875 -8.554688 4.78125 -8.484375 C 4.695312 -8.410156 4.585938 -8.375 4.453125 -8.375 Z M 4.453125 -8.375 "/></g></g></g><g fill="#000000" fill-opacity="1"><g transform="translate(198.403286, 278.102091)"><g><path d="M 9.96875 -7.90625 C 11.695312 -7.90625 12.5625 -6.828125 12.5625 -4.671875 L 12.5625 -0.71875 C 12.5625 -0.507812 12.492188 -0.335938 12.359375 -0.203125 C 12.234375 -0.0664062 12.066406 0 11.859375 0 C 11.648438 0 11.476562 -0.0664062 11.34375 -0.203125 C 11.21875 -0.347656 11.15625 -0.519531 11.15625 -0.71875 L 11.15625 -4.65625 C 11.15625 -5.945312 10.609375 -6.59375 9.515625 -6.59375 C 9.128906 -6.59375 8.78125 -6.503906 8.46875 -6.328125 C 8.15625 -6.160156 7.910156 -5.925781 7.734375 -5.625 C 7.566406 -5.332031 7.484375 -5.007812 7.484375 -4.65625 L 7.484375 -0.71875 C 7.484375 -0.519531 7.414062 -0.347656 7.28125 -0.203125 C 7.15625 -0.0664062 6.988281 0 6.78125 0 C 6.570312 0 6.398438 -0.0664062 6.265625 -0.203125 C 6.140625 -0.335938 6.078125 -0.507812 6.078125 -0.71875 L 6.078125 -4.671875 C 6.078125 -5.253906 5.953125 -5.71875 5.703125 -6.0625 C 5.460938 -6.414062 5.054688 -6.59375 4.484375 -6.59375 C 3.898438 -6.59375 3.414062 -6.40625 3.03125 -6.03125 C 2.65625 -5.664062 2.46875 -5.210938 2.46875 -4.671875 L 2.46875 -0.71875 C 2.46875 -0.519531 2.398438 -0.347656 2.265625 -0.203125 C 2.128906 -0.0664062 1.957031 0 1.75 0 C 1.539062 0 1.367188 -0.0664062 1.234375 -0.203125 C 1.109375 -0.335938 1.046875 -0.507812 1.046875 -0.71875 L 1.046875 -7.0625 C 1.046875 -7.257812 1.113281 -7.425781 1.25 -7.5625 C 1.382812 -7.695312 1.550781 -7.765625 1.75 -7.765625 C 1.957031 -7.765625 2.128906 -7.695312 2.265625 -7.5625 C 2.398438 -7.425781 2.46875 -7.257812 2.46875 -7.0625 L 2.46875 -6.546875 C 2.71875 -6.929688 3.054688 -7.253906 3.484375 -7.515625 C 3.921875 -7.773438 4.390625 -7.90625 4.890625 -7.90625 C 6.117188 -7.90625 6.914062 -7.359375 7.28125 -6.265625 C 7.5 -6.679688 7.859375 -7.054688 8.359375 -7.390625 C 8.867188 -7.734375 9.40625 -7.90625 9.96875 -7.90625 Z M 9.96875 -7.90625 "/></g></g></g><g fill="#000000" fill-opacity="1"><g transform="translate(223.875658, 278.102091)"><g/></g></g><g fill="#000000" fill-opacity="1"><g transform="translate(239.845704, 278.102091)"><g><path d="M 4.953125 -7.953125 C 5.628906 -7.953125 6.238281 -7.773438 6.78125 -7.421875 C 7.320312 -7.078125 7.75 -6.597656 8.0625 -5.984375 C 8.375 -5.378906 8.53125 -4.691406 8.53125 -3.921875 C 8.53125 -3.148438 8.375 -2.453125 8.0625 -1.828125 C 7.75 -1.203125 7.320312 -0.71875 6.78125 -0.375 C 6.238281 -0.03125 5.640625 0.140625 4.984375 0.140625 C 4.472656 0.140625 3.992188 0.03125 3.546875 -0.1875 C 3.097656 -0.414062 2.738281 -0.695312 2.46875 -1.03125 L 2.46875 -0.609375 C 2.46875 -0.410156 2.398438 -0.238281 2.265625 -0.09375 C 2.128906 0.0390625 1.957031 0.109375 1.75 0.109375 C 1.550781 0.109375 1.382812 0.0390625 1.25 -0.09375 C 1.113281 -0.226562 1.046875 -0.398438 1.046875 -0.609375 L 1.046875 -10.265625 C 1.046875 -10.472656 1.109375 -10.640625 1.234375 -10.765625 C 1.367188 -10.898438 1.539062 -10.96875 1.75 -10.96875 C 1.957031 -10.96875 2.128906 -10.898438 2.265625 -10.765625 C 2.398438 -10.628906 2.46875 -10.460938 2.46875 -10.265625 L 2.46875 -6.640625 C 2.695312 -6.992188 3.039062 -7.300781 3.5 -7.5625 C 3.957031 -7.820312 4.441406 -7.953125 4.953125 -7.953125 Z M 4.796875 -1.15625 C 5.242188 -1.15625 5.648438 -1.273438 6.015625 -1.515625 C 6.378906 -1.765625 6.660156 -2.097656 6.859375 -2.515625 C 7.066406 -2.929688 7.171875 -3.398438 7.171875 -3.921875 C 7.171875 -4.429688 7.066406 -4.894531 6.859375 -5.3125 C 6.660156 -5.726562 6.378906 -6.050781 6.015625 -6.28125 C 5.648438 -6.519531 5.242188 -6.640625 4.796875 -6.640625 C 4.328125 -6.640625 3.910156 -6.519531 3.546875 -6.28125 C 3.179688 -6.050781 2.894531 -5.726562 2.6875 -5.3125 C 2.488281 -4.90625 2.390625 -4.441406 2.390625 -3.921875 C 2.390625 -3.390625 2.488281 -2.914062 2.6875 -2.5 C 2.894531 -2.09375 3.179688 -1.765625 3.546875 -1.515625 C 3.910156 -1.273438 4.328125 -1.15625 4.796875 -1.15625 Z M 4.796875 -1.15625 "/></g></g></g><g fill="#000000" fill-opacity="1"><g transform="translate(260.811508, 278.102091)"><g><path d="M 7.359375 -7.875 C 7.566406 -7.875 7.734375 -7.804688 7.859375 -7.671875 C 7.992188 -7.535156 8.0625 -7.359375 8.0625 -7.140625 L 8.0625 -0.71875 C 8.0625 -0.519531 7.992188 -0.347656 7.859375 -0.203125 C 7.734375 -0.0664062 7.566406 0 7.359375 0 C 7.148438 0 6.976562 -0.0664062 6.84375 -0.203125 C 6.71875 -0.335938 6.65625 -0.507812 6.65625 -0.71875 L 6.65625 -1.09375 C 6.394531 -0.75 6.039062 -0.457031 5.59375 -0.21875 C 5.15625 0.0195312 4.679688 0.140625 4.171875 0.140625 C 3.492188 0.140625 2.878906 -0.03125 2.328125 -0.375 C 1.785156 -0.71875 1.359375 -1.195312 1.046875 -1.8125 C 0.734375 -2.4375 0.578125 -3.132812 0.578125 -3.90625 C 0.578125 -4.675781 0.734375 -5.367188 1.046875 -5.984375 C 1.359375 -6.597656 1.785156 -7.078125 2.328125 -7.421875 C 2.867188 -7.773438 3.46875 -7.953125 4.125 -7.953125 C 4.644531 -7.953125 5.128906 -7.84375 5.578125 -7.625 C 6.023438 -7.40625 6.382812 -7.128906 6.65625 -6.796875 L 6.65625 -7.140625 C 6.65625 -7.347656 6.71875 -7.519531 6.84375 -7.65625 C 6.976562 -7.800781 7.148438 -7.875 7.359375 -7.875 Z M 4.328125 -1.15625 C 4.796875 -1.15625 5.207031 -1.273438 5.5625 -1.515625 C 5.925781 -1.753906 6.207031 -2.078125 6.40625 -2.484375 C 6.613281 -2.898438 6.71875 -3.375 6.71875 -3.90625 C 6.71875 -4.414062 6.613281 -4.878906 6.40625 -5.296875 C 6.207031 -5.710938 5.925781 -6.039062 5.5625 -6.28125 C 5.207031 -6.519531 4.796875 -6.640625 4.328125 -6.640625 C 3.867188 -6.640625 3.457031 -6.519531 3.09375 -6.28125 C 2.726562 -6.050781 2.441406 -5.726562 2.234375 -5.3125 C 2.035156 -4.894531 1.9375 -4.425781 1.9375 -3.90625 C 1.9375 -3.375 2.035156 -2.898438 2.234375 -2.484375 C 2.441406 -2.078125 2.726562 -1.753906 3.09375 -1.515625 C 3.457031 -1.273438 3.867188 -1.15625 4.328125 -1.15625 Z M 4.375 -8.3125 C 4.300781 -8.3125 4.21875 -8.347656 4.125 -8.421875 C 4.039062 -8.492188 4.003906 -8.585938 4.015625 -8.703125 C 4.015625 -8.785156 4.039062 -8.875 4.09375 -8.96875 L 4.96875 -10.4375 C 5.050781 -10.570312 5.148438 -10.679688 5.265625 -10.765625 C 5.378906 -10.859375 5.507812 -10.90625 5.65625 -10.90625 C 5.875 -10.90625 6.039062 -10.847656 6.15625 -10.734375 C 6.269531 -10.628906 6.320312 -10.484375 6.3125 -10.296875 C 6.3125 -10.109375 6.234375 -9.929688 6.078125 -9.765625 L 4.96875 -8.5625 C 4.8125 -8.394531 4.613281 -8.3125 4.375 -8.3125 Z M 4.375 -8.3125 "/></g></g></g><g fill="#000000" fill-opacity="1"><g transform="translate(281.777312, 278.102091)"><g><path d="M 5.015625 -7.953125 C 6.796875 -7.953125 7.6875 -6.882812 7.6875 -4.75 L 7.6875 -0.71875 C 7.6875 -0.519531 7.617188 -0.347656 7.484375 -0.203125 C 7.347656 -0.0664062 7.175781 0 6.96875 0 C 6.769531 0 6.601562 -0.0664062 6.46875 -0.203125 C 6.332031 -0.347656 6.265625 -0.519531 6.265625 -0.71875 L 6.265625 -4.734375 C 6.265625 -5.316406 6.128906 -5.78125 5.859375 -6.125 C 5.597656 -6.46875 5.164062 -6.640625 4.5625 -6.640625 C 4.164062 -6.640625 3.804688 -6.550781 3.484375 -6.375 C 3.171875 -6.207031 2.921875 -5.976562 2.734375 -5.6875 C 2.554688 -5.394531 2.46875 -5.078125 2.46875 -4.734375 L 2.46875 -0.71875 C 2.46875 -0.519531 2.398438 -0.347656 2.265625 -0.203125 C 2.128906 -0.0664062 1.957031 0 1.75 0 C 1.539062 0 1.367188 -0.0664062 1.234375 -0.203125 C 1.109375 -0.335938 1.046875 -0.507812 1.046875 -0.71875 L 1.046875 -7.0625 C 1.046875 -7.257812 1.113281 -7.425781 1.25 -7.5625 C 1.382812 -7.695312 1.550781 -7.765625 1.75 -7.765625 C 1.957031 -7.765625 2.128906 -7.695312 2.265625 -7.5625 C 2.398438 -7.425781 2.46875 -7.257812 2.46875 -7.0625 L 2.46875 -6.546875 C 2.71875 -6.929688 3.070312 -7.257812 3.53125 -7.53125 C 3.988281 -7.8125 4.484375 -7.953125 5.015625 -7.953125 Z M 5.015625 -7.953125 "/></g></g></g><g fill="#000000" fill-opacity="1"><g transform="translate(302.37251, 278.102091)"><g><path d="M 4.921875 -7.90625 C 6.660156 -7.90625 7.53125 -6.828125 7.53125 -4.671875 L 7.53125 -0.71875 C 7.53125 -0.519531 7.460938 -0.347656 7.328125 -0.203125 C 7.191406 -0.0664062 7.023438 0 6.828125 0 C 6.628906 0 6.460938 -0.0664062 6.328125 -0.203125 C 6.191406 -0.347656 6.125 -0.519531 6.125 -0.71875 L 6.125 -4.671875 C 6.125 -5.953125 5.582031 -6.59375 4.5 -6.59375 C 3.914062 -6.59375 3.429688 -6.40625 3.046875 -6.03125 C 2.660156 -5.664062 2.46875 -5.210938 2.46875 -4.671875 L 2.46875 -0.71875 C 2.46875 -0.519531 2.398438 -0.347656 2.265625 -0.203125 C 2.128906 -0.0664062 1.957031 0 1.75 0 C 1.539062 0 1.367188 -0.0664062 1.234375 -0.203125 C 1.109375 -0.335938 1.046875 -0.507812 1.046875 -0.71875 L 1.046875 -10.265625 C 1.046875 -10.460938 1.113281 -10.628906 1.25 -10.765625 C 1.382812 -10.898438 1.550781 -10.96875 1.75 -10.96875 C 1.957031 -10.96875 2.128906 -10.898438 2.265625 -10.765625 C 2.398438 -10.628906 2.46875 -10.460938 2.46875 -10.265625 L 2.46875 -6.515625 C 2.707031 -6.898438 3.050781 -7.226562 3.5 -7.5 C 3.945312 -7.769531 4.421875 -7.90625 4.921875 -7.90625 Z M 4.921875 -7.90625 "/></g></g></g><g fill="#000000" fill-opacity="1"><g transform="translate(329.308864, 234.303871)"><g><path d="M 0.828125 -1.34375 C 0.742188 -1.488281 0.703125 -1.613281 0.703125 -1.71875 C 0.703125 -1.863281 0.773438 -1.972656 0.921875 -2.046875 C 0.984375 -2.117188 1.070312 -2.15625 1.1875 -2.15625 C 1.3125 -2.15625 1.429688 -2.097656 1.546875 -1.984375 C 2.203125 -1.117188 3.070312 -0.6875 4.15625 -0.6875 C 4.695312 -0.6875 5.160156 -0.8125 5.546875 -1.0625 C 5.941406 -1.3125 6.140625 -1.675781 6.140625 -2.15625 C 6.140625 -2.613281 5.957031 -2.957031 5.59375 -3.1875 C 5.226562 -3.425781 4.71875 -3.628906 4.0625 -3.796875 C 3.144531 -4.023438 2.421875 -4.328125 1.890625 -4.703125 C 1.367188 -5.078125 1.109375 -5.625 1.109375 -6.34375 C 1.109375 -6.800781 1.234375 -7.207031 1.484375 -7.5625 C 1.742188 -7.925781 2.09375 -8.207031 2.53125 -8.40625 C 2.976562 -8.613281 3.476562 -8.71875 4.03125 -8.71875 C 4.507812 -8.71875 4.988281 -8.625 5.46875 -8.4375 C 5.957031 -8.25 6.375 -7.957031 6.71875 -7.5625 C 6.8125 -7.476562 6.859375 -7.367188 6.859375 -7.234375 C 6.859375 -7.097656 6.804688 -6.976562 6.703125 -6.875 C 6.617188 -6.8125 6.515625 -6.78125 6.390625 -6.78125 C 6.285156 -6.78125 6.1875 -6.820312 6.09375 -6.90625 C 5.832031 -7.207031 5.515625 -7.4375 5.140625 -7.59375 C 4.773438 -7.75 4.382812 -7.828125 3.96875 -7.828125 C 3.445312 -7.828125 3 -7.703125 2.625 -7.453125 C 2.25 -7.210938 2.0625 -6.847656 2.0625 -6.359375 C 2.082031 -5.921875 2.285156 -5.582031 2.671875 -5.34375 C 3.054688 -5.113281 3.617188 -4.90625 4.359375 -4.71875 C 4.941406 -4.570312 5.421875 -4.410156 5.796875 -4.234375 C 6.171875 -4.054688 6.476562 -3.804688 6.71875 -3.484375 C 6.957031 -3.160156 7.078125 -2.734375 7.078125 -2.203125 C 7.078125 -1.472656 6.785156 -0.894531 6.203125 -0.46875 C 5.628906 -0.0390625 4.914062 0.171875 4.0625 0.171875 C 2.707031 0.171875 1.628906 -0.332031 0.828125 -1.34375 Z M 0.828125 -1.34375 "/></g></g></g><g fill="#000000" fill-opacity="1"><g transform="translate(338.120383, 234.303871)"><g><path d="M 2.28125 -0.5 C 2.28125 -0.351562 2.234375 -0.234375 2.140625 -0.140625 C 2.046875 -0.046875 1.925781 0 1.78125 0 C 1.632812 0 1.515625 -0.046875 1.421875 -0.140625 C 1.328125 -0.234375 1.28125 -0.351562 1.28125 -0.5 L 1.28125 -8.15625 C 1.28125 -8.300781 1.328125 -8.421875 1.421875 -8.515625 C 1.515625 -8.609375 1.632812 -8.65625 1.78125 -8.65625 C 1.925781 -8.65625 2.046875 -8.609375 2.140625 -8.515625 C 2.234375 -8.421875 2.28125 -8.300781 2.28125 -8.15625 Z M 1.78125 -9.78125 C 1.5625 -9.78125 1.390625 -9.832031 1.265625 -9.9375 C 1.140625 -10.039062 1.078125 -10.191406 1.078125 -10.390625 L 1.078125 -10.5625 C 1.078125 -10.757812 1.140625 -10.910156 1.265625 -11.015625 C 1.398438 -11.117188 1.578125 -11.171875 1.796875 -11.171875 C 2.242188 -11.171875 2.46875 -10.96875 2.46875 -10.5625 L 2.46875 -10.390625 C 2.46875 -10.191406 2.40625 -10.039062 2.28125 -9.9375 C 2.164062 -9.832031 2 -9.78125 1.78125 -9.78125 Z M 1.78125 -9.78125 "/></g></g></g><g fill="#000000" fill-opacity="1"><g transform="translate(342.684678, 234.303871)"><g><path d="M 5.328125 -8.71875 C 6.359375 -8.71875 7.113281 -8.410156 7.59375 -7.796875 C 8.082031 -7.191406 8.328125 -6.390625 8.328125 -5.390625 L 8.328125 -0.5 C 8.328125 -0.351562 8.273438 -0.234375 8.171875 -0.140625 C 8.078125 -0.046875 7.960938 0 7.828125 0 C 7.679688 0 7.5625 -0.046875 7.46875 -0.140625 C 7.375 -0.234375 7.328125 -0.351562 7.328125 -0.5 L 7.328125 -5.34375 C 7.328125 -6.0625 7.144531 -6.644531 6.78125 -7.09375 C 6.425781 -7.550781 5.867188 -7.78125 5.109375 -7.78125 C 4.628906 -7.78125 4.175781 -7.664062 3.75 -7.4375 C 3.320312 -7.21875 2.972656 -6.921875 2.703125 -6.546875 C 2.441406 -6.179688 2.3125 -5.78125 2.3125 -5.34375 L 2.3125 -0.5 C 2.3125 -0.351562 2.265625 -0.234375 2.171875 -0.140625 C 2.078125 -0.046875 1.957031 0 1.8125 0 C 1.664062 0 1.546875 -0.046875 1.453125 -0.140625 C 1.359375 -0.234375 1.3125 -0.351562 1.3125 -0.5 L 1.3125 -7.96875 C 1.3125 -8.101562 1.359375 -8.21875 1.453125 -8.3125 C 1.546875 -8.414062 1.664062 -8.46875 1.8125 -8.46875 C 1.957031 -8.46875 2.078125 -8.414062 2.171875 -8.3125 C 2.265625 -8.21875 2.3125 -8.101562 2.3125 -7.96875 L 2.3125 -7.046875 C 2.613281 -7.523438 3.046875 -7.921875 3.609375 -8.234375 C 4.171875 -8.554688 4.742188 -8.71875 5.328125 -8.71875 Z M 5.328125 -8.71875 "/></g></g></g><g fill="#000000" fill-opacity="1"><g transform="translate(353.311672, 234.303871)"><g><path d="M 5 -8.71875 C 5.519531 -8.71875 6.003906 -8.65625 6.453125 -8.53125 C 6.898438 -8.414062 7.257812 -8.257812 7.53125 -8.0625 C 7.800781 -7.863281 7.9375 -7.644531 7.9375 -7.40625 C 7.9375 -7.289062 7.894531 -7.179688 7.8125 -7.078125 C 7.726562 -6.972656 7.628906 -6.921875 7.515625 -6.921875 C 7.398438 -6.921875 7.304688 -6.941406 7.234375 -6.984375 C 7.160156 -7.035156 7.082031 -7.109375 7 -7.203125 C 6.851562 -7.335938 6.710938 -7.441406 6.578125 -7.515625 C 6.410156 -7.585938 6.191406 -7.648438 5.921875 -7.703125 C 5.648438 -7.753906 5.359375 -7.78125 5.046875 -7.78125 C 4.429688 -7.78125 3.867188 -7.625 3.359375 -7.3125 C 2.859375 -7 2.460938 -6.578125 2.171875 -6.046875 C 1.890625 -5.515625 1.75 -4.925781 1.75 -4.28125 C 1.75 -3.613281 1.882812 -3.015625 2.15625 -2.484375 C 2.4375 -1.953125 2.820312 -1.53125 3.3125 -1.21875 C 3.8125 -0.914062 4.378906 -0.765625 5.015625 -0.765625 C 5.410156 -0.765625 5.726562 -0.796875 5.96875 -0.859375 C 6.207031 -0.929688 6.441406 -1.03125 6.671875 -1.15625 C 6.753906 -1.195312 6.890625 -1.296875 7.078125 -1.453125 C 7.171875 -1.523438 7.25 -1.582031 7.3125 -1.625 C 7.375 -1.664062 7.445312 -1.6875 7.53125 -1.6875 C 7.664062 -1.6875 7.769531 -1.644531 7.84375 -1.5625 C 7.925781 -1.476562 7.96875 -1.367188 7.96875 -1.234375 C 7.96875 -1.046875 7.832031 -0.84375 7.5625 -0.625 C 7.289062 -0.40625 6.921875 -0.21875 6.453125 -0.0625 C 5.992188 0.09375 5.476562 0.171875 4.90625 0.171875 C 4.101562 0.171875 3.382812 -0.0195312 2.75 -0.40625 C 2.113281 -0.789062 1.617188 -1.320312 1.265625 -2 C 0.921875 -2.675781 0.75 -3.4375 0.75 -4.28125 C 0.75 -5.09375 0.925781 -5.832031 1.28125 -6.5 C 1.632812 -7.175781 2.132812 -7.710938 2.78125 -8.109375 C 3.425781 -8.515625 4.164062 -8.71875 5 -8.71875 Z M 5 -8.71875 "/></g></g></g><g fill="#000000" fill-opacity="1"><g transform="translate(362.872697, 234.303871)"><g><path d="M 8.515625 -4.75 C 8.515625 -4.613281 8.460938 -4.5 8.359375 -4.40625 C 8.265625 -4.3125 8.148438 -4.265625 8.015625 -4.265625 L 1.71875 -4.265625 C 1.71875 -3.597656 1.851562 -3 2.125 -2.46875 C 2.394531 -1.945312 2.78125 -1.53125 3.28125 -1.21875 C 3.789062 -0.914062 4.390625 -0.765625 5.078125 -0.765625 C 5.609375 -0.765625 6.082031 -0.875 6.5 -1.09375 C 6.925781 -1.320312 7.269531 -1.609375 7.53125 -1.953125 C 7.65625 -2.046875 7.769531 -2.09375 7.875 -2.09375 C 7.988281 -2.09375 8.085938 -2.046875 8.171875 -1.953125 C 8.265625 -1.867188 8.3125 -1.773438 8.3125 -1.671875 C 8.3125 -1.546875 8.253906 -1.425781 8.140625 -1.3125 C 7.785156 -0.882812 7.335938 -0.53125 6.796875 -0.25 C 6.265625 0.03125 5.695312 0.171875 5.09375 0.171875 C 4.238281 0.171875 3.484375 -0.0078125 2.828125 -0.375 C 2.171875 -0.75 1.660156 -1.265625 1.296875 -1.921875 C 0.929688 -2.585938 0.75 -3.351562 0.75 -4.21875 C 0.75 -5.125 0.925781 -5.914062 1.28125 -6.59375 C 1.644531 -7.28125 2.125 -7.804688 2.71875 -8.171875 C 3.320312 -8.535156 3.960938 -8.71875 4.640625 -8.71875 C 5.304688 -8.71875 5.929688 -8.5625 6.515625 -8.25 C 7.097656 -7.9375 7.570312 -7.476562 7.9375 -6.875 C 8.3125 -6.28125 8.503906 -5.570312 8.515625 -4.75 Z M 4.640625 -7.75 C 4.003906 -7.75 3.410156 -7.523438 2.859375 -7.078125 C 2.304688 -6.628906 1.953125 -5.988281 1.796875 -5.15625 L 7.484375 -5.15625 L 7.484375 -5.296875 C 7.421875 -5.796875 7.25 -6.226562 6.96875 -6.59375 C 6.695312 -6.96875 6.351562 -7.253906 5.9375 -7.453125 C 5.519531 -7.648438 5.085938 -7.75 4.640625 -7.75 Z M 4.640625 -7.75 "/></g></g></g><g fill="#000000" fill-opacity="1"><g transform="translate(330.199448, 250.069101)"><g><path d="M 8.21875 -0.96875 C 8.34375 -0.96875 8.453125 -0.921875 8.546875 -0.828125 C 8.640625 -0.734375 8.6875 -0.617188 8.6875 -0.484375 C 8.6875 -0.335938 8.640625 -0.21875 8.546875 -0.125 C 8.453125 -0.0390625 8.34375 0 8.21875 0 L 1.96875 0 C 1.8125 0 1.679688 -0.0390625 1.578125 -0.125 C 1.484375 -0.21875 1.4375 -0.34375 1.4375 -0.5 C 1.4375 -0.625 1.476562 -0.738281 1.5625 -0.84375 L 5.40625 -5.09375 C 6.03125 -5.757812 6.492188 -6.351562 6.796875 -6.875 C 7.097656 -7.40625 7.25 -7.925781 7.25 -8.4375 C 7.25 -9.195312 7.019531 -9.789062 6.5625 -10.21875 C 6.101562 -10.65625 5.46875 -10.875 4.65625 -10.875 C 4.113281 -10.875 3.628906 -10.742188 3.203125 -10.484375 C 2.773438 -10.222656 2.457031 -9.828125 2.25 -9.296875 C 2.125 -9.097656 1.976562 -9 1.8125 -9 C 1.6875 -9 1.566406 -9.039062 1.453125 -9.125 C 1.347656 -9.21875 1.296875 -9.316406 1.296875 -9.421875 C 1.296875 -9.492188 1.316406 -9.570312 1.359375 -9.65625 C 1.410156 -9.75 1.46875 -9.835938 1.53125 -9.921875 C 1.820312 -10.523438 2.253906 -10.992188 2.828125 -11.328125 C 3.410156 -11.660156 4.046875 -11.828125 4.734375 -11.828125 C 5.847656 -11.828125 6.722656 -11.519531 7.359375 -10.90625 C 7.992188 -10.300781 8.3125 -9.503906 8.3125 -8.515625 C 8.3125 -7.898438 8.144531 -7.273438 7.8125 -6.640625 C 7.476562 -6.003906 6.925781 -5.257812 6.15625 -4.40625 L 3.09375 -0.96875 Z M 8.21875 -0.96875 "/></g></g></g><g fill="#000000" fill-opacity="1"><g transform="translate(340.643229, 250.069101)"><g><path d="M 4.953125 0.171875 C 4.066406 0.171875 3.320312 -0.0859375 2.71875 -0.609375 C 2.125 -1.140625 1.675781 -1.851562 1.375 -2.75 C 1.070312 -3.65625 0.921875 -4.679688 0.921875 -5.828125 C 0.921875 -6.984375 1.066406 -8.007812 1.359375 -8.90625 C 1.660156 -9.8125 2.113281 -10.523438 2.71875 -11.046875 C 3.320312 -11.566406 4.066406 -11.828125 4.953125 -11.828125 C 5.828125 -11.828125 6.566406 -11.566406 7.171875 -11.046875 C 7.773438 -10.535156 8.226562 -9.828125 8.53125 -8.921875 C 8.84375 -8.015625 9 -6.984375 9 -5.828125 C 9 -4.679688 8.84375 -3.65625 8.53125 -2.75 C 8.226562 -1.851562 7.773438 -1.140625 7.171875 -0.609375 C 6.566406 -0.0859375 5.828125 0.171875 4.953125 0.171875 Z M 4.953125 -0.859375 C 5.898438 -0.859375 6.628906 -1.304688 7.140625 -2.203125 C 7.660156 -3.097656 7.921875 -4.304688 7.921875 -5.828125 C 7.921875 -7.359375 7.660156 -8.570312 7.140625 -9.46875 C 6.628906 -10.363281 5.898438 -10.8125 4.953125 -10.8125 C 4.003906 -10.8125 3.269531 -10.363281 2.75 -9.46875 C 2.238281 -8.570312 1.984375 -7.359375 1.984375 -5.828125 C 1.984375 -4.304688 2.238281 -3.097656 2.75 -2.203125 C 3.269531 -1.304688 4.003906 -0.859375 4.953125 -0.859375 Z M 4.953125 -0.859375 "/></g></g></g><g fill="#000000" fill-opacity="1"><g transform="translate(351.553379, 250.069101)"><g><path d="M 8.21875 -0.96875 C 8.34375 -0.96875 8.453125 -0.921875 8.546875 -0.828125 C 8.640625 -0.734375 8.6875 -0.617188 8.6875 -0.484375 C 8.6875 -0.335938 8.640625 -0.21875 8.546875 -0.125 C 8.453125 -0.0390625 8.34375 0 8.21875 0 L 1.96875 0 C 1.8125 0 1.679688 -0.0390625 1.578125 -0.125 C 1.484375 -0.21875 1.4375 -0.34375 1.4375 -0.5 C 1.4375 -0.625 1.476562 -0.738281 1.5625 -0.84375 L 5.40625 -5.09375 C 6.03125 -5.757812 6.492188 -6.351562 6.796875 -6.875 C 7.097656 -7.40625 7.25 -7.925781 7.25 -8.4375 C 7.25 -9.195312 7.019531 -9.789062 6.5625 -10.21875 C 6.101562 -10.65625 5.46875 -10.875 4.65625 -10.875 C 4.113281 -10.875 3.628906 -10.742188 3.203125 -10.484375 C 2.773438 -10.222656 2.457031 -9.828125 2.25 -9.296875 C 2.125 -9.097656 1.976562 -9 1.8125 -9 C 1.6875 -9 1.566406 -9.039062 1.453125 -9.125 C 1.347656 -9.21875 1.296875 -9.316406 1.296875 -9.421875 C 1.296875 -9.492188 1.316406 -9.570312 1.359375 -9.65625 C 1.410156 -9.75 1.46875 -9.835938 1.53125 -9.921875 C 1.820312 -10.523438 2.253906 -10.992188 2.828125 -11.328125 C 3.410156 -11.660156 4.046875 -11.828125 4.734375 -11.828125 C 5.847656 -11.828125 6.722656 -11.519531 7.359375 -10.90625 C 7.992188 -10.300781 8.3125 -9.503906 8.3125 -8.515625 C 8.3125 -7.898438 8.144531 -7.273438 7.8125 -6.640625 C 7.476562 -6.003906 6.925781 -5.257812 6.15625 -4.40625 L 3.09375 -0.96875 Z M 8.21875 -0.96875 "/></g></g></g><g fill="#000000" fill-opacity="1"><g transform="translate(361.99716, 250.069101)"><g><path d="M 8.078125 -4.53125 C 8.210938 -4.53125 8.328125 -4.484375 8.421875 -4.390625 C 8.515625 -4.304688 8.5625 -4.195312 8.5625 -4.0625 C 8.5625 -3.925781 8.515625 -3.8125 8.421875 -3.71875 C 8.328125 -3.632812 8.210938 -3.59375 8.078125 -3.59375 L 6.96875 -3.59375 L 6.96875 -0.5 C 6.96875 -0.351562 6.914062 -0.234375 6.8125 -0.140625 C 6.707031 -0.046875 6.585938 0 6.453125 0 C 6.304688 0 6.1875 -0.046875 6.09375 -0.140625 C 6.007812 -0.234375 5.96875 -0.351562 5.96875 -0.5 L 5.96875 -3.59375 L 1.0625 -3.59375 C 0.925781 -3.59375 0.804688 -3.644531 0.703125 -3.75 C 0.609375 -3.863281 0.5625 -3.984375 0.5625 -4.109375 C 0.5625 -4.242188 0.601562 -4.359375 0.6875 -4.453125 L 6.046875 -11.453125 C 6.128906 -11.585938 6.269531 -11.65625 6.46875 -11.65625 C 6.601562 -11.65625 6.71875 -11.609375 6.8125 -11.515625 C 6.914062 -11.421875 6.96875 -11.300781 6.96875 -11.15625 L 6.96875 -4.53125 Z M 1.9375 -4.53125 L 5.96875 -4.53125 L 5.96875 -9.859375 Z M 1.9375 -4.53125 "/></g></g></g></svg>